<svg width="19" height="19" viewBox="0 0 19 19" fill="none" xmlns="http://www.w3.org/2000/svg">
<circle cx="9.5" cy="9.5" r="9.5" fill="#FF6969"/>
<path d="M10.294 13.0909V12.554C10.294 12.1695 10.3736 11.8182 10.5327 11.5C10.6951 11.1785 10.9304 10.9216 11.2386 10.7294C11.5502 10.5339 11.9264 10.4361 12.3672 10.4361C12.8179 10.4361 13.1958 10.5322 13.5007 10.7244C13.8056 10.9167 14.036 11.1735 14.1918 11.495C14.3509 11.8165 14.4304 12.1695 14.4304 12.554V13.0909C14.4304 13.4754 14.3509 13.8284 14.1918 14.1499C14.0327 14.468 13.799 14.7249 13.4908 14.9205C13.1858 15.1127 12.8113 15.2088 12.3672 15.2088C11.9197 15.2088 11.5419 15.1127 11.2337 14.9205C10.9254 14.7249 10.6918 14.468 10.5327 14.1499C10.3736 13.8284 10.294 13.4754 10.294 13.0909ZM11.4524 12.554V13.0909C11.4524 13.3759 11.5204 13.6345 11.6562 13.8665C11.7921 14.0985 12.0291 14.2145 12.3672 14.2145C12.7019 14.2145 12.9356 14.0985 13.0682 13.8665C13.2008 13.6345 13.267 13.3759 13.267 13.0909V12.554C13.267 12.2689 13.2024 12.0104 13.0732 11.7784C12.9472 11.5464 12.7119 11.4304 12.3672 11.4304C12.0357 11.4304 11.8004 11.5464 11.6612 11.7784C11.522 12.0104 11.4524 12.2689 11.4524 12.554ZM5.1733 7.2642V6.72727C5.1733 6.3428 5.25284 5.98982 5.41193 5.66832C5.57434 5.34683 5.80966 5.08996 6.1179 4.89773C6.42945 4.70549 6.80563 4.60938 7.24645 4.60938C7.69721 4.60938 8.07505 4.70549 8.37997 4.89773C8.6849 5.08996 8.91525 5.34683 9.07102 5.66832C9.2268 5.98982 9.30469 6.3428 9.30469 6.72727V7.2642C9.30469 7.64867 9.22514 8.00166 9.06605 8.32315C8.91027 8.64134 8.67827 8.8982 8.37003 9.09375C8.0651 9.28598 7.69058 9.3821 7.24645 9.3821C6.79569 9.3821 6.41619 9.28598 6.10795 9.09375C5.80303 8.8982 5.57102 8.64134 5.41193 8.32315C5.25284 8.00166 5.1733 7.64867 5.1733 7.2642ZM6.33665 6.72727V7.2642C6.33665 7.54924 6.40294 7.80776 6.53551 8.03977C6.6714 8.27178 6.90838 8.38778 7.24645 8.38778C7.57789 8.38778 7.8099 8.27178 7.94247 8.03977C8.07836 7.80776 8.14631 7.54924 8.14631 7.2642V6.72727C8.14631 6.44223 8.08168 6.18371 7.95241 5.9517C7.82315 5.7197 7.58783 5.60369 7.24645 5.60369C6.91501 5.60369 6.67969 5.7197 6.54048 5.9517C6.40459 6.18371 6.33665 6.44223 6.33665 6.72727ZM5.6456 15L12.6456 4.81818H13.8338L6.83381 15H5.6456Z" fill="#F5F7F9"/>
</svg>
