<svg width="223" height="77" viewBox="0 0 223 77" fill="none" xmlns="http://www.w3.org/2000/svg">
<rect x="47" y="10" width="176" height="58" fill="#263A29"/>
<path d="M12.0682 62H1.52273L17.5909 15.4545H30.2727L46.3182 62H35.7727L24.1136 26.0909H23.75L12.0682 62ZM11.4091 43.7045H36.3182V51.3864H11.4091V43.7045Z" fill="#263A29"/>
<path d="M51.9205 62V15.4545H70.2841C73.8144 15.4545 76.822 16.1288 79.3068 17.4773C81.7917 18.8106 83.6856 20.6667 84.9886 23.0455C86.3068 25.4091 86.9659 28.1364 86.9659 31.2273C86.9659 34.3182 86.2992 37.0455 84.9659 39.4091C83.6326 41.7727 81.7008 43.6136 79.1705 44.9318C76.6553 46.25 73.6098 46.9091 70.0341 46.9091H58.3295V39.0227H68.4432C70.3371 39.0227 71.8977 38.697 73.125 38.0455C74.3674 37.3788 75.2917 36.4621 75.8977 35.2955C76.5189 34.1136 76.8295 32.7576 76.8295 31.2273C76.8295 29.6818 76.5189 28.3333 75.8977 27.1818C75.2917 26.0151 74.3674 25.1136 73.125 24.4773C71.8826 23.8258 70.3068 23.5 68.3977 23.5H61.7614V62H51.9205ZM108.523 62.6818C104.932 62.6818 101.841 61.9545 99.25 60.5C96.6742 59.0303 94.6894 56.9545 93.2955 54.2727C91.9015 51.5758 91.2045 48.3864 91.2045 44.7045C91.2045 41.1136 91.9015 37.9621 93.2955 35.25C94.6894 32.5379 96.6515 30.4242 99.1818 28.9091C101.727 27.3939 104.712 26.6364 108.136 26.6364C110.439 26.6364 112.583 27.0076 114.568 27.75C116.568 28.4773 118.311 29.5758 119.795 31.0455C121.295 32.5152 122.462 34.3636 123.295 36.5909C124.129 38.803 124.545 41.3939 124.545 44.3636V47.0227H95.0682V41.0227H115.432C115.432 39.6288 115.129 38.3939 114.523 37.3182C113.917 36.2424 113.076 35.4015 112 34.7955C110.939 34.1742 109.705 33.8636 108.295 33.8636C106.826 33.8636 105.523 34.2045 104.386 34.8864C103.265 35.553 102.386 36.4545 101.75 37.5909C101.114 38.7121 100.788 39.9621 100.773 41.3409V47.0455C100.773 48.7727 101.091 50.2652 101.727 51.5227C102.379 52.7803 103.295 53.75 104.477 54.4318C105.659 55.1136 107.061 55.4545 108.682 55.4545C109.758 55.4545 110.742 55.303 111.636 55C112.53 54.697 113.295 54.2424 113.932 53.6364C114.568 53.0303 115.053 52.2879 115.386 51.4091L124.341 52C123.886 54.1515 122.955 56.0303 121.545 57.6364C120.152 59.2273 118.348 60.4697 116.136 61.3636C113.939 62.2424 111.402 62.6818 108.523 62.6818ZM143.727 62.5682C141.076 62.5682 138.674 61.8864 136.523 60.5227C134.386 59.1439 132.689 57.1212 131.432 54.4545C130.189 51.7727 129.568 48.4848 129.568 44.5909C129.568 40.5909 130.212 37.2652 131.5 34.6136C132.788 31.947 134.5 29.9545 136.636 28.6364C138.788 27.303 141.144 26.6364 143.705 26.6364C145.659 26.6364 147.288 26.9697 148.591 27.6364C149.909 28.2879 150.97 29.1061 151.773 30.0909C152.591 31.0606 153.212 32.0152 153.636 32.9545H153.932V15.4545H163.591V62H154.045V56.4091H153.636C153.182 57.3788 152.538 58.3409 151.705 59.2955C150.886 60.2348 149.818 61.0152 148.5 61.6364C147.197 62.2576 145.606 62.5682 143.727 62.5682ZM146.795 54.8636C148.356 54.8636 149.674 54.4394 150.75 53.5909C151.841 52.7273 152.674 51.5227 153.25 49.9773C153.841 48.4318 154.136 46.6212 154.136 44.5455C154.136 42.4697 153.848 40.6667 153.273 39.1364C152.697 37.6061 151.864 36.4242 150.773 35.5909C149.682 34.7576 148.356 34.3409 146.795 34.3409C145.205 34.3409 143.864 34.7727 142.773 35.6364C141.682 36.5 140.856 37.697 140.295 39.2273C139.735 40.7576 139.455 42.5303 139.455 44.5455C139.455 46.5758 139.735 48.3712 140.295 49.9318C140.871 51.4773 141.697 52.6894 142.773 53.5682C143.864 54.4318 145.205 54.8636 146.795 54.8636ZM171.551 62V27.0909H181.233V62H171.551ZM176.415 22.5909C174.975 22.5909 173.741 22.1136 172.71 21.1591C171.695 20.1894 171.188 19.0303 171.188 17.6818C171.188 16.3485 171.695 15.2045 172.71 14.25C173.741 13.2803 174.975 12.7955 176.415 12.7955C177.854 12.7955 179.081 13.2803 180.097 14.25C181.127 15.2045 181.642 16.3485 181.642 17.6818C181.642 19.0303 181.127 20.1894 180.097 21.1591C179.081 22.1136 177.854 22.5909 176.415 22.5909ZM198.943 62.6591C196.716 62.6591 194.731 62.2727 192.989 61.5C191.246 60.7121 189.867 59.553 188.852 58.0227C187.852 56.4773 187.352 54.553 187.352 52.25C187.352 50.3106 187.708 48.6818 188.42 47.3636C189.133 46.0455 190.102 44.9848 191.33 44.1818C192.557 43.3788 193.951 42.7727 195.511 42.3636C197.087 41.9545 198.739 41.6667 200.466 41.5C202.496 41.2879 204.133 41.0909 205.375 40.9091C206.617 40.7121 207.519 40.4242 208.08 40.0455C208.64 39.6667 208.92 39.1061 208.92 38.3636V38.2273C208.92 36.7879 208.466 35.6742 207.557 34.8864C206.663 34.0985 205.39 33.7045 203.739 33.7045C201.996 33.7045 200.61 34.0909 199.58 34.8636C198.549 35.6212 197.867 36.5758 197.534 37.7273L188.58 37C189.034 34.8788 189.928 33.0455 191.261 31.5C192.595 29.9394 194.314 28.7424 196.42 27.9091C198.542 27.0606 200.996 26.6364 203.784 26.6364C205.723 26.6364 207.58 26.8636 209.352 27.3182C211.14 27.7727 212.723 28.4773 214.102 29.4318C215.496 30.3864 216.595 31.6136 217.398 33.1136C218.201 34.5985 218.602 36.3788 218.602 38.4545V62H209.42V57.1591H209.148C208.587 58.25 207.837 59.2121 206.898 60.0455C205.958 60.8636 204.83 61.5076 203.511 61.9773C202.193 62.4318 200.67 62.6591 198.943 62.6591ZM201.716 55.9773C203.14 55.9773 204.398 55.697 205.489 55.1364C206.58 54.5606 207.436 53.7879 208.057 52.8182C208.678 51.8485 208.989 50.75 208.989 49.5227V45.8182C208.686 46.0152 208.269 46.197 207.739 46.3636C207.223 46.5152 206.64 46.6591 205.989 46.7955C205.337 46.9167 204.686 47.0303 204.034 47.1364C203.383 47.2273 202.792 47.3106 202.261 47.3864C201.125 47.553 200.133 47.8182 199.284 48.1818C198.436 48.5455 197.777 49.0379 197.307 49.6591C196.837 50.2652 196.602 51.0227 196.602 51.9318C196.602 53.25 197.08 54.2576 198.034 54.9545C199.004 55.6364 200.231 55.9773 201.716 55.9773Z" fill="white"/>
</svg>
